<svg width="32" height="32" viewBox="0 0 32 32" fill="none" xmlns="http://www.w3.org/2000/svg">
<path d="M22.1387 14.7308C22.9507 13.3469 23.3014 11.7405 23.14 10.1441C22.9013 7.76545 21.5733 5.66279 19.4027 4.22412L17.9293 6.44545C19.4213 7.43479 20.3293 8.84412 20.4867 10.4108C20.5592 11.1389 20.4686 11.8741 20.2213 12.5628C19.9741 13.2515 19.5764 13.8764 19.0573 14.3921L17.468 15.9815L19.6253 16.6148C25.268 18.2681 25.3333 23.9428 25.3333 24.0001H28C28 21.6148 26.7253 16.9535 22.1387 14.7308Z" fill="#707579"/>
<path d="M12.6667 15.9999C15.608 15.9999 18 13.6079 18 10.6666C18 7.72525 15.608 5.33325 12.6667 5.33325C9.72532 5.33325 7.33332 7.72525 7.33332 10.6666C7.33332 13.6079 9.72532 15.9999 12.6667 15.9999ZM12.6667 7.99992C14.1373 7.99992 15.3333 9.19592 15.3333 10.6666C15.3333 12.1373 14.1373 13.3333 12.6667 13.3333C11.196 13.3333 9.99999 12.1373 9.99999 10.6666C9.99999 9.19592 11.196 7.99992 12.6667 7.99992ZM14.6667 17.3333H10.6667C6.25466 17.3333 2.66666 20.9213 2.66666 25.3333V26.6666H5.33332V25.3333C5.33332 22.3919 7.72532 19.9999 10.6667 19.9999H14.6667C17.608 19.9999 20 22.3919 20 25.3333V26.6666H22.6667V25.3333C22.6667 20.9213 19.0787 17.3333 14.6667 17.3333Z" fill="#707579"/>
</svg>
