<svg width="53" height="53" viewBox="0 0 53 53" fill="none" xmlns="http://www.w3.org/2000/svg">
<path d="M44.6629 7.66295C54.8802 17.8802 54.8802 34.4457 44.6629 44.6629C34.4457 54.8802 17.8802 54.8802 7.66295 44.6629C-2.55432 34.4457 -2.55432 17.8802 7.66295 7.66295C17.8802 -2.55432 34.4457 -2.55432 44.6629 7.66295Z" fill="#5C77F2"/>
<path d="M38.9631 39.0286C31.8643 46.1274 8.74625 43.6019 8.74625 43.6019C8.74625 43.6019 6.22076 20.4838 13.3196 13.385C20.4184 6.28621 43.3651 8.98308 43.3651 8.98308C43.3651 8.98308 46.0619 31.9298 38.9631 39.0286Z" fill="white"/>
<path d="M31.2302 31.5252C28.1953 34.5601 23.2749 34.5601 20.2401 31.5252C17.2052 28.4904 17.2052 23.57 20.2401 20.5351C22.0394 18.7358 25.7939 18.8448 28.5525 19.2317C30.6339 19.5236 32.2417 21.1314 32.5336 23.2128C32.9206 25.9714 33.0295 29.7259 31.2302 31.5252Z" fill="#5C77F2"/>
</svg>
