<svg width="32" height="32" viewBox="0 0 32 32" fill="none" xmlns="http://www.w3.org/2000/svg">
<path d="M21.3333 2.66675H10.6667C6.25466 2.66675 2.66666 6.25475 2.66666 10.6667V26.6667C2.66666 27.0204 2.80713 27.3595 3.05718 27.6096C3.30723 27.8596 3.64637 28.0001 3.99999 28.0001H21.3333C25.7453 28.0001 29.3333 24.4121 29.3333 20.0001V10.6667C29.3333 6.25475 25.7453 2.66675 21.3333 2.66675ZM26.6667 20.0001C26.6667 22.9414 24.2747 25.3334 21.3333 25.3334H5.33332V10.6667C5.33332 7.72541 7.72532 5.33341 10.6667 5.33341H21.3333C24.2747 5.33341 26.6667 7.72541 26.6667 10.6667V20.0001Z" fill="#5C77F2"/>
<path d="M12.6667 17.3333C13.7712 17.3333 14.6667 16.4378 14.6667 15.3333C14.6667 14.2287 13.7712 13.3333 12.6667 13.3333C11.5621 13.3333 10.6667 14.2287 10.6667 15.3333C10.6667 16.4378 11.5621 17.3333 12.6667 17.3333Z" fill="#5C77F2"/>
<path d="M19.3333 17.3333C20.4379 17.3333 21.3333 16.4378 21.3333 15.3333C21.3333 14.2287 20.4379 13.3333 19.3333 13.3333C18.2288 13.3333 17.3333 14.2287 17.3333 15.3333C17.3333 16.4378 18.2288 17.3333 19.3333 17.3333Z" fill="#5C77F2"/>
</svg>
